<svg width="300" height="300" id="svg">


    <polygon style="fill: black" points="150,0 145,15 155,15"></polygon>
    <polygon style="fill: black" points="300,150 285,145 285,155"></polygon>

    <polygon style="stroke:rgb(242, 206, 176);opacity: 0.8; fill: rgb(255, 226, 187)" points="150,150 150,200 250,150"></polygon>

    <polygon style=" stroke:rgb(242, 206, 176);opacity: 0.8; fill: rgb(255, 226, 187)" points="100,150 150,150 150,250, 100,250"></polygon>
    <path style=" stroke:rgb(242, 206, 176);opacity: 0.8; fill: rgb(255, 226, 187)" d="M150,150 L50,150 A90,90 0 0,1 150,50 Z"></path>


    <line x1="50" x2="50" y1="140" y2="160"></line>
    <line x1="100" x2="100" y1="140" y2="160"></line>
    <line x1="200" x2="200" y1="140" y2="160"></line>
    <line x1="250" x2="250" y1="140" y2="160"></line>

    <line x1="140" x2="160" y1="50" y2="50" ></line>
    <line x1="140" x2="160" y1="100" y2="100"></line>
    <line x1="140" x2="160" y1="200" y2="200"></line>
    <line x1="140" x2="160" y1="250" y2="250"></line>

    <text x="285" y="140">x</text>
    <text x="160" y="15">y</text>

    <text x="40" y="145" id="-r">-R</text>
    <text x="85" y="145" id="-r2">-R/2</text>
    <text x="190" y="145" id="r2">R/2</text>
    <text x="245" y="145" id="r">R</text>

    <text x="155" y="52.5" id="r">R</text>
    <text x="155" y="102.5" id="r2">R/2</text>
    <text x="155" y="202.5" id="-r2">-R/2</text>
    <text x="155" y="252.5" id="-r">-R</text>

     <line style="stroke:#000;" x1="0" x2="300" y1="150" y2="150"></line>
    <line  style="stroke:#000;" x1="150" x2="150" y1="0" y2="300"></line>

</svg> 